<svg xmlns="http://www.w3.org/2000/svg" viewBox="0 0 180 70.752">
    <defs>
        <style>
            .cls-1{fill:#fff}
        </style>
    </defs>
    <g id="logo" transform="translate(.1 -.001)">
        <path id="Path_46" d="M50.72 23.075l-1.782 8.733c-.713 3.564-2.851 5.881-7.307 5.881-4.99 0-6.238-3.03-5.168-7.485 1.6-6.238 6.594-8.02 14.257-7.129M58.384 10.6l-5.347.356-1.6 8.554c-1.96 0-2.673-.178-4.99-.178-7.485 0-13.9 3.208-15.683 10.515C29.156 36.442 32.9 41.61 41.1 41.61c8.376 0 12.119-4.455 13.366-10.515z" class="cls-1" data-name="Path 46" transform="translate(23.853 8.291)"/>
        <path id="Path_47" d="M24.851 19.393c-7.842-.713-14.436 0-14.614 2.5-.178 3.921 12.832.535 12.475 7.842C22.355 40.423 4.355 37.928-.1 36.68l.891-3.208c7.663 1.248 15.861 1.248 16.04-2.851.178-4.456-12.831-.535-12.476-7.842.178-5.347 8.376-8.376 21.743-6.416" class="cls-1" data-name="Path 47" transform="translate(0 12.33)"/>
        <path id="Path_48" d="M34.607 26.828a9.1 9.1 0 0 1-8.907 7.307c-4.455 0-6.416-2.5-5.168-7.307 1.069-4.455 4.634-7.485 8.911-7.485s6.238 3.03 5.168 7.485M30.152 15.6c-7.663 0-13.9 4.455-15.5 11.05S17.32 37.7 24.984 37.7s13.9-4.455 15.5-11.05c1.426-6.594-2.673-11.05-10.337-11.05" class="cls-1" data-name="Path 48" transform="translate(11.273 12.202)"/>
        <path id="Path_49" d="M83.916 37.621h-6.772C73.045 33.878 65.381 24.967 59.5 15.7h4.99c5.525 7.485 19.426 21.921 19.426 21.921" class="cls-1" data-name="Path 49" transform="translate(46.618 12.28)"/>
        <path id="Path_50" d="M81.011 6.416L84.219 0l.891 6.594 6.238-2.317-4.455 5.7 4.807 3.746-6.416.356-.356 6.951-3.564-5.168-5.164 4.811 1.96-6.772-6.06-.713L77.981 9.8l-2.5-5.881" class="cls-1" data-name="Path 50" transform="translate(56.474)"/>
        <path id="Path_51" d="M93.564 26.828a9.3 9.3 0 0 1-9.089 7.307c-4.455 0-6.416-2.673-5.347-7.307a9.459 9.459 0 0 1 9.089-7.485c4.277-.178 6.416 2.851 5.347 7.485M88.93 15.6c-7.842 0-14.079 4.455-15.683 11.228s2.673 11.227 10.515 11.227S97.841 33.6 99.445 26.828 96.771 15.6 88.93 15.6" class="cls-1" data-name="Path 51" transform="translate(57.109 12.202)"/>
        <path id="Path_52" d="M56.7 38.967C69.353 31.839 80.4 21.146 88.245 11.7 82.542 29.344 69 38.789 56.7 38.967" class="cls-1" data-name="Path 52" transform="translate(44.428 9.152)"/>
        <path id="Path_53" d="M60.549 18.808c2.5 0 3.743.891 3.743 2.5 0 4.455-8.733 4.1-12.475 3.386a9.107 9.107 0 0 1 8.733-5.881m8.911 2.5c0-3.208-2.5-5.7-8.376-5.7C51.638 15.6 45.4 21.838 45.4 29.323c0 4.99 4.1 9.089 11.584 9.089a15.484 15.484 0 0 0 8.554-2.5c-6.594.713-14.614 0-14.614-6.951v-.891c8.911 1.782 18.535-.356 18.535-6.772" class="cls-1" data-name="Path 53" transform="translate(35.589 12.202)"/>
        <g id="Group_31" data-name="Group 31" transform="translate(.424 60.238)">
            <path id="Path_54" d="M6.621 44.315l-.891-.891a3.593 3.593 0 0 1-1.96.535 3.627 3.627 0 0 1-2.67-1.07C.027 41.82.2 40.572.2 38.968c0-1.782 0-3.03.891-3.921A2.813 2.813 0 0 1 3.769 33.8a3.362 3.362 0 0 1 2.673 1.069c1.069 1.069 1.069 2.317 1.069 3.921a7.175 7.175 0 0 1-.535 3.564l.891.891m-2.85-7.128a1.618 1.618 0 0 0-1.248-.535 1.618 1.618 0 0 0-1.248.535c-.356.356-.535.891-.535 2.851s.178 2.317.535 2.851a1.618 1.618 0 0 0 1.248.535 1.072 1.072 0 0 0 .713-.178l-1.069-1.069 1.069-1.069.713.891a5.542 5.542 0 0 0 .178-1.96c0-1.96 0-2.5-.356-2.851" class="cls-1" data-name="Path 54" transform="translate(-.194 -33.8)"/>
            <path id="Path_55" d="M8.964 43.958A3.465 3.465 0 0 1 5.4 40.394V33.8h1.96v6.416A1.684 1.684 0 0 0 9.143 42a1.684 1.684 0 0 0 1.782-1.782V33.8h1.96v6.594a3.77 3.77 0 0 1-3.921 3.564" class="cls-1" data-name="Path 55" transform="translate(3.878 -33.8)"/>
            <path id="Path_56" d="M16.894 43.78L16.359 42H12.8l-.54 1.78H10.3l3.564-9.98h1.6l3.564 9.98m-4.451-6.95l-1.247 3.564h2.5z" class="cls-1" data-name="Path 56" transform="translate(7.711 -33.8)"/>
            <path id="Path_57" d="M16 43.7v-9.8h1.96v8.2h4.455v1.6" class="cls-1" data-name="Path 57" transform="translate(12.17 -33.722)"/>
            <path id="Rectangle_341" d="M0 0h1.96v9.98H0z" class="cls-1" data-name="Rectangle 341" transform="translate(36.546 .178)"/>
            <path id="Path_58" d="M27.255 35.5v8.2h-1.782v-8.2H22.8v-1.6h7.129v1.6" class="cls-1" data-name="Path 58" transform="translate(17.488 -33.722)"/>
            <path id="Path_59" d="M32.19 39.781V43.7h-1.96v-3.919L27.2 33.9h2.139l1.782 3.921 1.96-3.921h1.96" class="cls-1" data-name="Path 59" transform="translate(20.93 -33.722)"/>
            <path id="Path_60" d="M40.543 42.811a3.876 3.876 0 0 1-5.347 0c-1.069-1.069-.891-2.317-.891-3.921 0-1.782 0-3.03.891-3.921a3.876 3.876 0 0 1 5.347 0c1.069 1.069 1.069 2.317 1.069 3.921s0 2.851-1.069 3.921m-1.426-6.772a1.723 1.723 0 0 0-2.5 0c-.356.356-.535.891-.535 2.851s.178 2.317.535 2.851a1.723 1.723 0 0 0 2.5 0c.356-.356.535-.891.535-2.851s-.178-2.5-.535-2.851" class="cls-1" data-name="Path 60" transform="translate(26.479 -33.722)"/>
            <path id="Path_61" d="M41.56 35.5V38h3.921v1.782H41.56V43.7H39.6v-9.8h6.594v1.6" class="cls-1" data-name="Path 61" transform="translate(30.629 -33.722)"/>
            <path id="Path_62" d="M46.4 43.7v-9.8h1.96v8.2h4.455v1.6" class="cls-1" data-name="Path 62" transform="translate(35.948 -33.722)"/>
            <path id="Rectangle_342" d="M0 0h1.96v9.98H0z" class="cls-1" data-name="Rectangle 342" transform="translate(90.546 .178)"/>
            <path id="Path_63" d="M55.56 35.5V38h3.921v1.782H55.56V43.7H53.6v-9.8h6.594v1.6" class="cls-1" data-name="Path 63" transform="translate(41.58 -33.722)"/>
            <path id="Path_64" d="M58.4 43.7v-9.8h6.416v1.6h-4.634v2.317H64.1V39.6h-3.918v2.5h4.634v1.6" class="cls-1" data-name="Path 64" transform="translate(45.334 -33.722)"/>
            <path id="Path_65" d="M68.264 43.958a4.854 4.854 0 0 1-3.564-1.247l1.248-1.248a2.951 2.951 0 0 0 2.317.891c1.069 0 1.782-.356 1.782-1.248a1.361 1.361 0 0 0-.356-.891 1.047 1.047 0 0 0-.891-.356l-1.248-.178a3.352 3.352 0 0 1-1.96-.891 2.434 2.434 0 0 1-.713-1.96c0-1.782 1.248-3.03 3.386-3.03a4.651 4.651 0 0 1 3.208 1.069l-.891 1.248a3.318 3.318 0 0 0-1.96-.713c-1.069 0-1.6.535-1.6 1.248a.712.712 0 0 0 .356.713 1.361 1.361 0 0 0 .891.356l1.248.178a5.02 5.02 0 0 1 1.96.713 2.841 2.841 0 0 1 .713 2.139c-.178 2.139-1.782 3.208-3.921 3.208" class="cls-1" data-name="Path 65" transform="translate(50.262 -33.8)"/>
            <path id="Path_66" d="M70 43.7v-9.8h6.594v1.6H71.96v2.317h3.921V39.6H71.96v2.5h4.634v1.6" class="cls-1" data-name="Path 66" transform="translate(54.407 -33.722)"/>
            <path id="Path_67" d="M80.068 43.78l-1.96-3.921H76.86v3.921H74.9V33.8h3.921a3.049 3.049 0 0 1 3.208 3.03 2.81 2.81 0 0 1-1.782 2.67l2.139 4.277m-3.743-8.2H76.86v2.673h1.782a1.271 1.271 0 0 0 1.426-1.248 1.312 1.312 0 0 0-1.426-1.426" class="cls-1" data-name="Path 67" transform="translate(58.24 -33.8)"/>
            <path id="Path_68" d="M84.312 43.7h-1.426L79.5 33.9h2.139l1.96 6.416 1.96-6.416h1.96" class="cls-1" data-name="Path 68" transform="translate(61.838 -33.722)"/>
            <path id="Rectangle_343" d="M0 0h1.96v9.98H0z" class="cls-1" data-name="Rectangle 343" transform="translate(150.962 .178)"/>
            <path id="Path_69" d="M90.869 43.88a3.627 3.627 0 0 1-2.669-1.069c-1.069-1.069-.891-2.317-.891-3.921 0-1.782 0-3.03.891-3.921a3.627 3.627 0 0 1 2.669-1.069 3.375 3.375 0 0 1 3.564 3.208h-1.96a1.714 1.714 0 0 0-1.6-1.426 1.618 1.618 0 0 0-1.248.535c-.356.356-.535.891-.535 2.851s.178 2.317.535 2.851a1.618 1.618 0 0 0 1.248.535 1.56 1.56 0 0 0 1.6-1.426h1.96a3.471 3.471 0 0 1-3.564 2.851" class="cls-1" data-name="Path 69" transform="translate(67.934 -33.722)"/>
            <path id="Path_70" d="M92.4 43.7v-9.8h6.594v1.6H94.36v2.317h3.921V39.6H94.36v2.5h4.634v1.6" class="cls-1" data-name="Path 70" transform="translate(71.928 -33.722)"/>
            <path id="Path_71" d="M100.364 43.958a4.854 4.854 0 0 1-3.564-1.247l1.248-1.248a2.951 2.951 0 0 0 2.317.891c1.069 0 1.782-.356 1.782-1.248a1.361 1.361 0 0 0-.356-.891 1.047 1.047 0 0 0-.891-.356l-1.248-.178a3.352 3.352 0 0 1-1.96-.891 5.168 5.168 0 0 1-.535-1.96c0-1.782 1.248-3.03 3.386-3.03a4.651 4.651 0 0 1 3.208 1.069l-1.251 1.248a3.318 3.318 0 0 0-1.96-.713c-1.069 0-1.6.535-1.6 1.248a.712.712 0 0 0 .356.713 1.361 1.361 0 0 0 .891.356l1.248.178a5.02 5.02 0 0 1 1.96.713 2.841 2.841 0 0 1 .713 2.139c0 2.139-1.6 3.208-3.743 3.208" class="cls-1" data-name="Path 71" transform="translate(75.37 -33.8)"/>
        </g>
    </g>
</svg>
